<svg version="1.1" id="Layer_1" xmlns="http://www.w3.org/2000/svg" x="0" y="0" viewBox="0 0 449.8 610" xml:space="preserve"><style>.st0{fill:#ff3e3e}.st0,.st1,.st2,.st4{fill-rule:evenodd;clip-rule:evenodd}.st1{fill:#ced8f0}.st2{fill:#111927}.st4{fill:#cf3434}.st5{fill:#ff3e3e}.st6{fill:#fff}.st6,.st7,.st8{fill-rule:evenodd;clip-rule:evenodd}.st7{fill:#303f61}.st8{fill:#68748e}.st9{fill:#a4b1cd}.st10,.st9{fill-rule:evenodd;clip-rule:evenodd}.st10,.st11{fill:#424e63}.st12{fill-rule:evenodd;clip-rule:evenodd;fill:#868c93}.st13{fill:#dae3fa}.st13,.st14,.st15,.st17,.st18,.st19{fill-rule:evenodd;clip-rule:evenodd}.st14{fill:#ffaf02}.st15{fill:#8a5e01}.st17{fill:#ffd67f}.st18{fill:#b87f05}.st19{fill:#573e08}</style><g id="Layer_x0020_1"><g id="_2003134607728"><path class="st0" d="M22.7 218.8l-.3.5c-2.4 4.5-3.9 10.5-5.4 15.4-2.5 8.4-5 16.8-7.3 25.2-2.4 8.5-4.6 17.1-6.6 25.6-.6 2.7-1.4 5.4-1.9 8.2-.5 2.5-1.1 5.5-1.1 8.1v.8c0 .3 0 .5.1.7.6 4.5 3 9.9 4.9 14.1 2.6 6.1 5.5 12 8.4 18 2.2 4.6 4.4 9.2 6.4 13.8v64.9c-2.5 2.6-5 5.3-7.5 8-1.1 1.2-2.2 2.2-3 3.6-1 1.7-1.3 3.4-1.6 5.3-.8 4.2-1.7 8.4-2.5 12.6-.9 4.2-1.7 8.4-2.6 12.6-.8 3.7.1 9.2 2 12.5 2.1 3.6 4.2 7.3 6.4 10.9.5.8.9 1.5 1.5 2.4 1.7 2.7 4.5 5.1 7.6 6.1V513l.3 1c.5 1.5 1.1 2.8 2.1 4 2 2.5 4.6 3.6 7.4 4.5 2.9 1 5.9 1.8 8.8 2.8l69.3 24.2c.3.1.5.2.8.3.1.2.1.5.2.6l3.5 11.1.1.3c2 5 3.1 5.4 7.6 7.5l.2.1 93.6 37.7c3.5 1.4 7.2 2.9 11 2.9s7.5-1.5 11-2.9l93.6-37.7.2-.1c4.5-2.2 5.6-2.5 7.6-7.5l.1-.3 3.5-11.1c.1-.2.1-.5.2-.6.3-.1.5-.2.8-.3l69.3-24.2c2.9-1 5.9-1.8 8.8-2.8s5.5-2.1 7.4-4.5c1-1.2 1.6-2.5 2.1-4l.3-1v-24.9c3.2-1.1 5.9-3.5 7.6-6.1.5-.7 1-1.5 1.5-2.4 2.2-3.6 4.3-7.3 6.4-10.9 1.9-3.4 2.8-8.8 2-12.5-.9-4.2-1.7-8.4-2.6-12.6s-1.7-8.4-2.5-12.6c-.4-1.9-.6-3.5-1.6-5.3-.8-1.5-1.9-2.5-3-3.6-2.5-2.6-5-5.3-7.5-8V350c1-1.9 1.8-3.9 2.6-5.5 2.5-5.3 5.1-10.5 7.4-15.9 2-4.5 4-8.8 5.8-13.3 1.4-3.3 4-10 4-13.4 0-2.5-.8-5.8-1.5-8.3-.7-2.8-1.5-5.6-2.3-8.4-2.5-9.4-5.2-18.7-7.9-28-2.7-9.5-5.5-19.1-8.4-28.6-1-3.3-2-6.5-3.1-9.8-.5-1.7-1.1-3.7-1.9-5.4-1.5-2.9-4.5-5.8-6.6-8.2-4.3-4.6-8.4-9.4-12.4-14.3-4.3-5.2-7.9-10.9-11.4-16.6-3.6-5.8-7.1-11.7-10.5-17.6-1.5-2.5-4.8-9.2-7.2-10.7-1.2-.8-2.8-1.4-4.3-1.6l-1.6-.4-5.5-10.4-7.9-18.1-.1-.2c-1.5-4.6-9.8-7.1-13.9-8.6-7.4-2.8-15-5.4-22.4-8-4.5-1.5-8.9-3.1-13.4-4.6l-3-1 .6-3.1c.3-1.2.4-2.4.4-3.6-.2-4.2-2.2-8.2-3.1-12.2l-.5-1.9 1.5-1.4c.4-.4.8-.8 1.3-1.2 1.5-1.4 3.1-2.8 4.5-4.4 5-5.6 12.4-14.3 10.4-22.5l-.7-3.2 3.1-1.1c3.7-1.3 6.4-4.7 6.7-8.6.2-2.3-.2-4.4-1.4-6.3-3.9-6.3-14.4-8.6-21.3-7.1h-.4c-6.1.6-13.4 3.9-18.5 7-1.1.7-2.2 1.4-3.3 2.2l-3.6 2.5-1.8-4.1c-1.7-4-5-6.4-9.2-7.4-2-.5-4.2-.9-6.3-1.3-3-.5-6-1.1-9-1.7-4.5-.9-14.1-2.6-17.6-5.2-5.3-3.8-10.8-7.8-17.4-8.4-6.4-.6-11.9 1.9-16.3 6.4-6.4 6.4-10.7 18.4-13.2 27.2l-.9 3.3-3.3-.6c-3.3-.6-6.5-1.1-9.8-1.4-4.4-.3-8.5.8-11.9 3.6-7.4 6.1-7.9 17-5.2 25.5 2.4 7.1 6.9 13.1 13.3 17l6.8 4.2-7.6 2.3c-8.7 2.6-17.5 4.8-26.3 7.1-8.3 2.2-16.5 4.3-24.7 6.6-6.2 1.8-12.7 3.6-18.5 6.3-2.6 1.2-5.2 2.5-6.9 4.9-1.2 1.5-1.7 3.5-2.5 5.3v.1L79 144.2l-1.7.4c-1.4.3-2.8.7-4 1.5-2.4 1.6-5.7 8.2-7.2 10.8-3.5 5.9-6.9 11.8-10.5 17.6-3.5 5.7-7.2 11.4-11.4 16.6-7.3 8.9-13.8 18.3-21 27.2l-.5.5z"/><path class="st1" d="M293.8 28.8l12.9-5.8s6.3-1.7 11.9 1.4c5.5 3 3.5 7.5.9 8.2-2.5.7-4.6-1.3-4.8-2.7s.7-2.2.7-2.2.1 2 2.1 1.7c1.9-.3.1-5.2-5.9-2-6 3.1-8.7 6.8-6.5 10.6 2.1 3.7 4.7 6.6 4.7 7.4s-.1 4.4-2 6.3c-1.9 1.9-5.5 5.4-6.4 7s-2.6 3.7-4 5.4c-1.4 1.6-3.4 5.4-4.5 8.1s1.1 7.4.3 12.5c-.9 5.1-2.9 11-5.5 10.7s-5.1 0-6.4-1-.1-3.3.4-6 .7-3.1.9-7.3c.1-4.1 1-7.6 1.5-10.4.5-2.7 1.1-5.5 2.7-7.6 1.6-2.1 4.3-3.7 5-4.7s1.9-2.1 2-2.9c.1-.7.6-3-.3-3.5s-1.1.1-3.6-2.1c-2.5-2.3-5-4.3-5-6.7 0-2.5.7-5.5 1.9-6.7 1.1-1.4 7.1-7.6 7-7.7z"/><path class="st2" d="M40.8 518.6l69.3 24.2c5.1 1.8 4 1 5.4 5.5l3.4 10.8c1.2 2.8.8 2.2 4.1 3.7l93.5 37.6c4.9 2 6.5 2.4 8.3 2.4s3.5-.5 8.3-2.4l93.5-37.6c3.3-1.5 2.9-.9 4.1-3.7l3.4-10.8c1.5-4.6.4-3.8 5.4-5.5l69.3-24.2c9.6-3.5 12.8-3.2 13.8-6.6v-30.5h.3c1.5 0 2.6 0 3.5.1 1.8 0 4-1.9 5-3.4.4-.5.8-1.3 1.3-2.2 2.2-3.5 4.2-7.2 6.3-10.8 1-1.8 1.6-5.4 1.2-7.4-.9-4.2-1.7-8.4-2.6-12.6s-1.7-8.4-2.6-12.6c-.4-1.8-.5-2.5-.8-3.1-.4-.5-.8-1.1-2-2.3-3.2-3.4-6.4-6.7-9.5-10.1V241.9l-52.5-24c0-21.5-16.1-14.8-37.9-26.5l16.3-50c-3.4-8.5-2-7.2-11.8-10.4-61.3-18.5-55.2-20.5-112-37.7h-.2c-56.8 17.2-50.6 19.2-112 37.7-9.7 3.3-8.4 1.9-11.8 10.4l16.3 50c-21.8 11.6-37.8 5-37.9 26.5l-52.5 24V417c-3.2 3.4-6.4 6.7-9.5 10.1-1.1 1.2-1.6 1.6-2 2.3-.4.6-.5 1.3-.8 3.1-.8 4.2-1.7 8.4-2.6 12.6s-1.7 8.4-2.6 12.6c-.5 2 .2 5.6 1.2 7.4l6.3 10.8c.5.9 1 1.5 1.3 2.2.9 1.5 3.1 3.4 5 3.4.9 0 2-.1 3.5-.1h.3V512c1 3.5 4.2 3.2 13.8 6.6h.2z"/><path fill="#a3b1cc" d="M224.9 579.6L140 548.9l-8.3-17.3-54.2-19.7 1.1-2.4 56.4 19.7 6.6 12.8 83.3 30.7 83.3-30.7 6.6-12.8 56.4-19.7 1.2 2.4-54.3 19.7-8.3 17.3z"/><path class="st0" d="M296.1 485.8h15.4v15.3h-15.4z"/><path class="st4" d="M274.8 493.9h10.7v10.6h-10.7zm19.1 17.5h7.8v7.6h-7.8zm31-20.7h9.2v9.1h-9.2z"/><path class="st0" d="M353.7 486.8h6.7v6.4h-6.7zm-78.9 35.8h7.7v7.7h-7.7zm-121-36.8h-15.6v15.3h15.6z"/><path class="st4" d="M175 493.9h-10.7v10.6H175zm-19.1 17.5h-7.8v7.6h7.8zM125 490.7h-9.3v9.1h9.3z"/><path class="st0" d="M96.1 486.8h-6.6v6.4h6.6zm78.9 35.8h-7.7v7.7h7.7z"/><path class="st5" d="M152.1 402.5c0 2-1.2 3-3.5 3h-9.4v6.4h-3.5V395h12.9c2.3 0 3.5 1 3.5 2.9v4.6zm-3.3-1.3v-1.8c0-.9-.4-1.4-1-1.4h-8.4v4.5h8.4c.6-.1 1-.5 1-1.3zm26.8 10.8h-4.5l-5.7-6.4h-3.3v6.4h-3.5v-16.8h13.2c2.3 0 3.5 1 3.5 2.9v4.6c0 1.5-.6 2.4-1.8 2.9h-3.7l5.8 6.4zm-3.8-10.6v-2c0-.9-.4-1.4-1-1.4h-8.6v4.7h8.6c.7.1 1-.4 1-1.3zM202 408c0 1.5-.3 2.6-.8 3.2-.5.5-1.5.8-3 .8h-11.3c-1.5 0-2.5-.3-3-.8s-.8-1.6-.8-3.2v-8.8c0-1.5.3-2.6.8-3.2.5-.5 1.5-.8 3-.8h11.3c1.5 0 2.5.3 3 .8s.8 1.6.8 3.2v8.8zm-3.6.8v-10.5h-11.8v10.5h11.8zm44.5 3.2h-15.4v-16.9h3.5v13.7h11.9v3.2zm23.4 0h-3.5l-2-3.7h-10l-1.9 3.7h-3.5l8.6-16.9h3.5l8.8 16.9zm-7-6.8l-3.5-6.8-3.5 6.8h7zm29.1 3.5c0 2.2-1.5 3.3-4.5 3.3h-11.6v-16.9h12.6c2.3 0 3.5 1.1 3.5 3.3v2.1c0 1.6-.9 2.6-2.6 2.8 1.8.3 2.8 1.4 2.8 3.3l-.2 2.1zm-3.4-8.1v-1.8c0-.5-.5-.9-1.6-.9h-7.7v3.9h7.7c1 0 1.6-.4 1.6-1.2zm.1 7.2v-1.5c0-.6-.2-1.1-.5-1.3-.3-.2-.7-.3-1.4-.3h-7.7v4.2h7.7c.6 0 1.1-.1 1.4-.3s.5-.5.5-.8zm28.9.3c0 1.5-.3 2.6-.9 3.2-.5.5-1.6.8-3.1.8h-9.5c-1.6 0-2.7-.3-3.2-.9s-.7-1.9-.7-3.9h3.5v1.5h10.6V405h-10c-1.5 0-2.5-.3-3.1-.8s-.8-1.6-.8-3.2v-1.8c0-1.5.3-2.6.8-3.2.5-.5 1.6-.8 3.1-.8h12.9v3h-13.5v3.6h10c1.5 0 2.5.3 3.1.8.5.5.9 1.6.9 3.2l-.1 2.3z"/><path class="st6" d="M67.4 459.9c-3.4 3.5-6.7 7.1-10 10.6H26.8c-2.1-3.5-4.2-7.1-6.2-10.6.9-4.3 1.7-8.4 2.6-12.7.9-4.3 1.7-8.4 2.6-12.7 3.4-3.5 6.7-7.1 10.1-10.6h29.2c2 3.5 4.2 7.1 6.4 10.6-.6 4.3-1.4 8.4-2 12.7-.7 4.3-1.4 8.4-2.1 12.7zm-11 .2c.7-4.3 1.5-8.5 2.2-12.9.7-4.3 1.5-8.6 2.2-12.9H36.6c-.8 4.3-1.6 8.6-2.5 12.9-.8 4.3-1.6 8.6-2.5 12.9h24.8zm65.9-36.2c-3 3.5-5.9 7-8.9 10.4H89.5c-.4 2.7-.8 5.4-1.2 8.2h26.8c-2.8 3.2-5.6 6.4-8.4 9.4H87.1c-.5 3.1-.8 6.2-1.3 9.3s-.9 6.2-1.3 9.3c-.2.1-.4.3-.5.4H73.5c1.2-7.8 2.4-15.7 3.5-23.5 1.2-7.8 2.4-15.7 3.5-23.5h41.8zm46 0c-2.8 3.5-5.6 7-8.4 10.4H136c-.3 2.7-.5 5.4-.7 8.2h26.8c-2.7 3.2-5.3 6.4-7.9 9.4h-19.6c-.3 3.1-.5 6.2-.8 9.3-.3 3.1-.5 6.2-.8 9.3-.2.1-.4.3-.5.4H122c.8-7.8 1.5-15.7 2.4-23.5.8-7.8 1.5-15.7 2.4-23.5h42-.5zm45.1 32.4c-1.5 2.4-2.9 4.8-4.3 7.2-1.5 2.4-2.8 4.7-4.3 7.2h-42.7c2.9-3.5 5.8-7 8.6-10.4h27.7c.8-1.3 1.8-2.5 2.7-3.8-.8-1.4-1.7-2.8-2.5-4.2h-27.5c-1.3-2.3-2.5-4.6-3.6-6.9s-2.4-4.6-3.5-6.9c1.5-2.4 2.9-4.8 4.4-7.2 1.5-2.4 2.9-4.8 4.4-7.2h40.7c-2.7 3.5-5.4 7-8 10.4h-27c-.9 1.4-1.8 2.6-2.7 4 .8 1.5 1.5 2.8 2.4 4.3h27.2c1.3 2.3 2.5 4.5 3.8 6.8s2.6 4.5 4 6.8l.2-.1zm50.5 14.2h-11.1c-.1-3.1-.3-6.2-.4-9.3l-.3-9.3h-21.5c0 3.1.1 6.2.1 9.3s.1 6.2.1 9.3c-.2.1-.4.3-.5.4h-10.5v-47h10.5c.1 3.1.1 6.2.1 9.4 0 3.1 0 6.2.1 9.4h21.3c-.1-3.1-.2-6.2-.3-9.4-.1-3.1-.2-6.2-.4-9.4h10.5c.4 7.8.7 15.5 1 23.3.4 7.8.6 15.5 1 23.3h.3zm54.1-10.6c-2.4 3.5-4.8 7.1-7.3 10.6H280c-3-3.5-5.9-7.1-8.9-10.6-.2-4.3-.4-8.4-.6-12.7-.2-4.3-.4-8.4-.6-12.7 2.5-3.5 4.9-7.1 7.4-10.6h29.2c3 3.5 6 7.1 9 10.6.4 4.3.8 8.4 1.2 12.7.4 4.3.8 8.4 1.3 12.7zm-11 .2c-.4-4.3-.7-8.6-1.1-12.9l-1.2-12.9h-24.2c.3 4.3.5 8.6.8 12.9s.5 8.6.8 12.9H307zm66.5 10.4h-11.1c-.5-3.8-1.1-7.6-1.6-11.4-1.3-1.4-2.6-2.7-3.9-4.1h-21c.4 2.6.6 5.2.9 7.8l.9 7.8c-.3.2-.4.3-.6.5h-10.4c-.8-7.8-1.6-15.7-2.5-23.5-.8-7.8-1.7-15.7-2.5-23.5h36.7c1.6 2.4 3.4 4.8 5.1 7.2 1.7 2.4 3.5 4.8 5.1 7.2-1.5 3.6-3.1 7.2-4.6 10.8 2.5 2.7 5 5.4 7.4 8.1.4 2.3.7 4.5 1.1 6.7.3 2.1.7 4.3 1 6.4zm-15.9-31.3c-1.2-1.6-2.4-3.2-3.5-4.8h-20.6c.4 3.4.8 6.7 1.2 10h20.8c.8-1.7 1.4-3.5 2.1-5.2zm58-15.3l8.9 10.4H386c.5 2.7 1 5.4 1.5 8.2h26.7l2.5 9.4h-27.6c.5 2.7 1 5.4 1.4 8.1h37.2c-2.1 3.5-4.1 7-6.1 10.4h-40.5c-1.3-7.8-2.5-15.5-3.8-23.3s-2.5-15.5-3.7-23.3l42 .1z"/><path class="st2" d="M6.4 302zm229.4-153.1c-19.3-.8-36.9-9.5-44.2-21.8 9 11.4 25.6 19.6 44.2 21.8z"/><path class="st2" d="M80.2 150.5H77s-.1 0-.1.1h-.1c-1.2.8-16.8 30.4-27.8 43.8-5.4 6.6-13.2 17.5-21 27.2-3.8 7.4-21.6 71.8-21.6 79.6v.7c1.1 7.6 13.6 31 20.4 47C58.4 362 74.6 382 92.4 382.3c71.1 1.3 52.5 28.2 103.1-12.5h1.1c6.1-.4 21.3 11.1 28.7 9.3 0 0 1.8.5 4.5 0 2.6-.5 20.1-8.7 22.9-9.2 2.7-.5 2.4 0 5.3 6.7s7.9 13.3 12.7 15.3c4.8 2 31.1.5 39.8-2.9 8.7-3.5 10.4-7.4 18.3-10.1s12.7 3.9 29.2 3.6c16.4-.3 23.1-6.7 31.3-14.7 8.3-8 32.6-17 34-18.7 1.3-1.7 20.6-41.8 20.6-47.6 0-5.8-22.8-82.6-24.2-85.6s-7.4-7.9-18.3-21.3-26.6-43-27.8-43.8c-1.2-.8-6.4-1.3-6.4-1.3l-7.3-13.7-8.3-19c.2-1.8-35.8-13.8-54.3-20.2-1.2-.5-1.5-1.1-1.1-1.9.2-.5.6-1.1 1.1-1.8 1-1.8 2.3-4.5 2.2-6.9-.2-3.8-2.3-7-3.3-12.7s4.3-8.1 8.5-12.9c7-7.8 9.9-13.3 8.9-16.9-1.9-7.1-12.9-9.1 1.6-19.3 0 0-2.3-.2-6 1.1s-13.5 6-12.9 11.6c.5 5.7 5.7 3.9 9.3 6.2 3.5 2.3 1 6.4 1 6.4s.6-1.9-1.2-3.6c-1.8-1.6-4.5-1.1-4.5-1.1s4.4 1.9 1.7 8.4c-2.6 6.5-12.2 10.7-12.9 16.1-1.3 10.2 6.4 14.3-5 22.3 0 0 3.3-2.5 3.8-6.4 1.2-8.9-7.5-15.3 5.3-25.3 7.2-5.6 6.9-12.9 3.7-14.3-3.2-1.4-11.2.4-8.7-7.7s18.3-15.5 18.3-15.5c-9.4.6-31.9 12.4-28.5 24 2 6.7 12.4 5.4 13.9 6.9s-4.3 4.5-7.3 5.5c-3 1.1-3.9 4.6-3.9 4.6s-5.9-2.4-6.7-7.8c-.9-5.4-.2-24.7-1.6-28.8-.4-1.1-1.2-3.3-5.1-4.4-9.5-2.5-28.1-4.1-35.1-9.3-7.1-5.2-16.2-12.1-25.4-2.8-9.3 9.3-13.6 33.9-13.6 33.9s-9.9-2.9-18.5-3.5c-17.3-1.2-15.9 31.4 7.4 37.2 0 0-3.5 5.3.2 11.9-20.2 7.2-64.4 16.4-78.7 22.9-5.1 2.4-4.4 2.6-6.3 7.1l-14.3 29.7s-1.5.1-3 .4l-.4.6z"/><path class="st7" d="M108.7 273.2l32-6s2.2-3.9 1.5-4-10.4-2.9-16.2-1-17.3 10.9-17.3 11z"/><path class="st6" d="M73.7 337.8s-2.9-4.7-2.3-16.5 4.8-30.3 9.4-36.7c4.5-6.4 10.4-8.4 10.4-8.4s-6.2-2.8-13.8 5.1c-7.6 7.9-10.9 35.3-10.7 42.8.1 7.4 7 13.7 7 13.7zm102.1-170.7c-5.8 5.8-13.3 13.3-13.2 13.8 0 .6 2.1 5.1 3.4 7.8l-7.4 2.9s-4.7-8.5-4.4-9.4c.4-1 28.2-30 28.2-30s-3.1-4.5-10.4-4.7c-7.3-.3-10.5 1-10.5 1s1.7-15.3 2.4-16.3c.6-1 26.1-22.9 26.1-22.9s.1 2.4-.2 4.6l-19.9 17.3-1.5 11.6s4 .1 8.4 1.5c4.4 1.5 6.5 4.5 6.5 4.5l3 3.8s-4.9 4.8-8 10c-1.1 1.8-1.8 3.3-2.3 4.4l-.2.1z"/><path class="st8" d="M183.5 164s-15.8 15.7-15.8 16.3c0 .5 1.5 4 2.6 6.6l23.3-9.3s-8-36-9.1-42c-.8-4.3.1-9.5 1.8-14.1l-13.4 10.9-1.2 6.9s4.6.6 7.9 2.4c3.3 1.8 4.1 3 4.1 3l.6 3.5-1.4.6 3 3.8s-4.9 4.8-8 10c-1.1 1.8-1.8 3.3-2.3 4.4 3.7-3.7 6.8-6.7 6.8-6.7l1.1 3.7z"/><path class="st7" d="M337.7 273.2l-32-6s-2.2-3.9-1.5-4c.6-.1 10.4-2.9 16.2-1 5.7 1.9 17.3 10.9 17.3 11z"/><path class="st6" d="M372.6 337.8s2.9-4.7 2.3-16.5-4.8-30.3-9.4-36.7c-4.5-6.4-10.4-8.4-10.4-8.4s6.2-2.8 13.8 5.1c7.6 7.9 10.9 35.3 10.7 42.8-.2 7.4-7.1 13.7-7 13.7z"/><path class="st9" d="M263.9 135.8c-1.1 6.1-9.1 42-9.1 42l23.3 9.3c1.1-2.5 2.6-6.2 2.6-6.6 0-.6-15.8-16.3-15.8-16.3l.9-3.6s20.1 19.7 20.1 20.6c0 .6-2.1 5.1-3.4 7.8l7.4 2.9s4.7-8.5 4.4-9.4c-.4-1-28.2-30-28.2-30s3.1-4.5 10.4-4.7c7.3-.3 10.5 1 10.5 1s-1.7-15.3-2.4-16.3l-11.6-8.9-.9 2.3 6.4 5.6 1.5 11.6s-4 .1-8.4 1.5c-4.4 1.5-6.5 4.5-6.5 4.5l-1.4-.6.6-3.5s.8-1.3 4.1-3c3.3-1.8 7.9-2.4 7.9-2.4l-.6-4c-3.3-2.7-11.2-9.2-11.3-9.3-.2-.1.2 1.4.2 4.3.1 2.9-.8 5.2-.7 5.2z"/><path class="st8" d="M265 164s15.8 15.7 15.8 16.3c0 .5-1.5 4-2.6 6.6l-23.3-9.3s8-36 9.1-42c0 0 .9-2.4.9-5.2 0-2.9-.4-4.4-.2-4.3.2.1 8 6.5 11.3 9.3l.6 4s-4.6.6-7.9 2.4c-3.3 1.8-4.1 3-4.1 3l-.6 3.5 1.4.6-3 3.8s4.9 4.8 8 10c1.1 1.8 1.8 3.3 2.3 4.4-3.7-3.7-6.8-6.7-6.8-6.7l-.9 3.6z"/><path class="st0" d="M43.6 293.5c-2.1-.6-4.7 1.7-5.9 5.4-1.2 3.6-.4 7.2 1.7 7.8 2.1.6 4.7-1.7 5.9-5.4 1.2-3.6.4-7.1-1.7-7.8zm362.4.4c2-.6 4.5 1.6 5.6 5.2 1.1 3.5.4 6.8-1.6 7.4s-4.5-1.6-5.6-5.2c-1.1-3.4-.3-6.8 1.6-7.4z"/><path class="st7" d="M333.1 357.8s20.9-4.3 27.3-16.5c6.4-12.3 8-30 .1-43.5-7.9-13.4-32.1-17.2-32.1-17.2s2.8 3.5 2.2 6.9c-.6 3.4-2.5 3.7-2 6.2s4.1 3.4 5.2 7.4c1.1 4.1.8 7.1.1 8.4-.7 1.2-1.7 1.5-1.6 3.1s4.3 2.4 5 6.7c.7 4.4.6 9.1.1 9.9s-4 4.3-4.1 5.4c-.1 1.2-2.3 8.7-2.3 8.7s-1.4-11.7-.9-13.2 2.2-2.5 2.5-4.1c.4-1.5-.3-6.4-.9-7.6-.6-1.3-5-3.7-5-5.6s1.9-5.4 1.9-7.2c0-1.9.3-3.9-.5-5.2-.7-1.3-6-5-6.1-6.9s2.3-5.4 2.2-6.9c-.1-1.5-1.1-4.2-2.5-5.4-1.4-1.1-2.7-1.8-2.7-1.8s-34.5-6.1-40.1-6.1-28.9 8.2-28.9 8.2 3.2 7.1 6 7.3c2.8.2 19.7-3.7 22.2-3.5s30.2 11.2 29.4 12.2c-.6 1-34.5 3.2-36.9 4s-28.2 13.2-28.2 13.2 1.6 8.8 5.3 9.8c3.6 1 27.6-6.9 30.4-7.8 2.8-.8 32.4 4.5 30.9 5.8-1.5 1.4-23.5 13.8-30.5 13.8-6.9 0-28.4.3-29.2.7-.7.5.5 7.8 3.8 10.4 3.3 2.5 29.2 3.6 30.7 2.9s29.8-5.3 31.1-5.1c1.3.2 4.4 1.8-1.7 7.9-6.2 6.1-11 11.4-13.2 12s-30 5.4-29.9 6.9 3.5 7.8 11 7.4c7.5-.5 24.2-4.3 26.8-5.1 2.6-.8 22.2-15.6 23.4-16.2l1.3-.5.4.2z"/><path class="st8" d="M354.8 291.4c-5.4-.8-14.3-2.2-24.1-3.6.6-3.4-2.2-6.9-2.2-6.9s16.2 2.4 26.3 10.5z"/><path class="st6" d="M330.2 283.6c-.6-1.7-1.6-2.9-1.6-2.9s10.9 1.6 20.4 6.8c-.1 0-7.2-1.8-18.8-3.9z"/><path class="st8" d="M322 281.5c1.4 1.1 2.3 3.6 2.5 5.2-22.2-3.4-46.6-7-48-6.9-2.3.1-18.3 3.5-24.5 4.9-.9-1.5-1.5-2.9-1.5-2.9s23.2-8.2 28.9-8.2c5.6 0 40.1 6.1 40.1 6.1s1.2.7 2.5 1.8z"/><path class="st6" d="M322 281.5l.8.8c-2.5-.4-5-.8-7.7-1.2-20.3-2.8-35.6-5.2-37.4-4.8-1.4.3-17.4 4.3-26.7 6.6-.4-.7-.5-1.2-.5-1.2s23.2-8.2 28.9-8.2c5.6 0 40.1 6.1 40.1 6.1s1.3.6 2.7 1.8h-.2v.1z"/><path class="st8" d="M274.2 308.1c.6-.1 21.4-1 22.6-1.5 1.3-.5 8.3-8.4 8.3-8.4-8.4 1.1-32.1 2.7-34.1 3.5-2.4.8-28.2 13.2-28.2 13.2s.4 2 1.2 4.2c8.1-3 29.5-10.9 30.2-11zm35 14.8c-2.5 1.8-23.6 13.7-30.3 13.7-6.9 0-28.4.3-29.2.7-.4.3-.2 2.2.5 4.4 0 0 29.5.3 32.9-.1 3.4-.5 19.2-9 22.3-12.2 3-3.2 3.7-6.5 3.8-6.5z"/><path class="st7" d="M113.2 357.8s-20.9-4.3-27.3-16.5c-6.4-12.3-8-30-.1-43.5 7.9-13.4 32.1-17.2 32.1-17.2s-2.8 3.5-2.2 6.9c.6 3.4 2.5 3.7 2 6.2s-4.1 3.4-5.2 7.4c-1.1 4.1-.8 7.1-.1 8.4.7 1.2 1.7 1.5 1.6 3.1s-4.3 2.4-5 6.7c-.7 4.4-.6 9.1-.1 9.9s4 4.3 4.1 5.4 2.3 8.7 2.3 8.7 1.4-11.7.9-13.2-2.2-2.5-2.5-4.1c-.4-1.5.3-6.4.9-7.6.6-1.3 5-3.7 5-5.6s-1.9-5.4-1.9-7.2c0-1.9-.3-3.9.5-5.2s6-5 6.1-6.9-2.3-5.4-2.2-6.9 1.1-4.2 2.5-5.4c1.4-1.1 2.7-1.8 2.7-1.8s34.5-6.1 40.1-6.1c5.6 0 28.9 8.2 28.9 8.2s-3.2 7.1-6 7.3-19.7-3.7-22.2-3.5-30.2 11.2-29.4 12.2c.6 1 34.5 3.2 36.9 4 2.4.8 28.2 13.2 28.2 13.2s-1.6 8.8-5.3 9.8c-3.6 1-27.6-6.9-30.4-7.8-2.8-.8-32.4 4.5-30.9 5.8 1.5 1.4 23.5 13.8 30.5 13.8 6.9 0 28.4.3 29.2.7.7.5-.5 7.8-3.8 10.4-3.3 2.5-29.2 3.6-30.7 2.9s-29.8-5.3-31.1-5.1c-1.3.2-4.4 1.8 1.7 7.9 6.2 6.1 11 11.4 13.2 12s30 5.4 29.9 6.9-3.5 7.8-11 7.4c-7.5-.5-24.2-4.3-26.8-5.1-2.6-.8-22.2-15.6-23.4-16.2l-1.3-.5-.4.2z"/><path class="st7" d="M115.2 343.6s1.4-11.7.9-13.2-2.2-2.5-2.5-4.1c-.4-1.5.3-6.4.9-7.6.6-1.3 5-3.7 5-5.6s-1.9-5.4-1.9-7.2c0-1.9-.3-3.9.5-5.2s6-5 6.1-6.9-2.3-5.4-2.2-6.9 1.1-4.2 2.5-5.4c1.4-1.1 2.7-1.8 2.7-1.8s34.5-6.1 40.1-6.1c5.6 0 28.9 8.2 28.9 8.2s-3.2 7.1-6 7.3c-2.8.2-19.7-3.7-22.2-3.5s-30.2 11.2-29.4 12.2c.6 1 34.5 3.2 36.9 4 2.4.8 28.2 13.2 28.2 13.2s-1.6 8.8-5.3 9.8c-3.6 1-27.6-6.9-30.4-7.8-2.8-.8-32.4 4.5-30.9 5.8 1.5 1.4 23.5 13.8 30.5 13.8 6.9 0 28.4.3 29.2.7.7.5-.5 7.8-3.8 10.4-3.3 2.5-29.2 3.6-30.7 2.9s-29.8-5.3-31.1-5.1c-1.3.2-4.4 1.8 1.7 7.9 6.2 6.1 11 11.4 13.2 12s30 5.4 29.9 6.9-3.5 7.8-11 7.4c-7.5-.5-24.2-4.3-26.8-5.1-2.6-.8-22.2-15.6-23.4-16.2l-.6-.3c-4.3-9.2 1.3-14.5 1.3-14.5h-.3z"/><path class="st8" d="M91.5 291.4c5.4-.8 14.3-2.2 24.1-3.6-.6-3.4 2.2-6.9 2.2-6.9s-16.1 2.4-26.3 10.5z"/><path class="st6" d="M116.2 283.6c.6-1.7 1.6-2.9 1.6-2.9s-10.9 1.6-20.4 6.8c0 0 7.2-1.8 18.8-3.9z"/><path class="st8" d="M124.3 281.5c-1.4 1.1-2.3 3.6-2.5 5.2 22.2-3.4 46.6-7 48-6.9 2.3.1 18.3 3.5 24.5 4.9.9-1.5 1.5-2.9 1.5-2.9s-23.2-8.2-28.9-8.2c-5.6 0-40.1 6.1-40.1 6.1s-1.1.7-2.5 1.8z"/><path class="st6" d="M124.3 281.5l-.8.8c2.5-.4 5-.8 7.7-1.2 20.3-2.8 35.6-5.2 37.4-4.8 1.4.3 17.4 4.3 26.7 6.6.4-.7.5-1.2.5-1.2s-23.2-8.2-28.9-8.2c-5.6 0-40.1 6.1-40.1 6.1s-1.3.6-2.7 1.8h.2v.1z"/><path class="st8" d="M172.2 308.1c-.6-.1-21.4-1-22.6-1.5-1.3-.5-8.3-8.4-8.3-8.4 8.4 1.1 32.1 2.7 34.1 3.5 2.4.8 28.2 13.2 28.2 13.2s-.4 2-1.2 4.2c-8.1-3-29.6-10.9-30.2-11zM137 322.9c2.5 1.8 23.6 13.7 30.3 13.7 6.9 0 28.4.3 29.2.7.4.3.2 2.2-.5 4.4 0 0-29.5.3-32.9-.1-3.4-.5-19.2-9-22.3-12.2-2.9-3.2-3.7-6.5-3.8-6.5z"/><path class="st0" d="M81 326.5c-.2-1-.3-2-.4-2.9l5.6.1 6.9 9.4 7-.3 6.7 12.4h.2c1.7 0 3.2 1.4 3.2 3.2 0 1.7-1.4 3.2-3.2 3.2-1.7 0-3.2-1.4-3.2-3.2 0-.5.2-1.2.5-1.6l-5.9-11-6.7.3-7-9.4-3.7-.2zm-.3-13.4c.1-1 .3-2 .5-2.9h9.7l4.7 10.4h3.5c.5-1 1.5-1.6 2.7-1.6 1.7 0 3.2 1.4 3.2 3.2 0 1.7-1.4 3.2-3.2 3.2-1.2 0-2.3-.7-2.8-1.7h-5.3L89 313.2l-8.3-.1zm2.7-10.4c.4-1 .8-2 1.3-2.9l4.4.1 5.8-6.6 9.5-.5c.5-1.1 1.5-1.8 2.8-1.8 1.7 0 3.2 1.4 3.2 3.2 0 1.7-1.4 3.2-3.2 3.2-1.2 0-2.2-.6-2.7-1.5l-8.4.5-3.4 3.8 5.3.1c.5-1 1.5-1.7 2.8-1.7 1.7 0 3.2 1.4 3.2 3.2 0 1.7-1.4 3.2-3.2 3.2-1.2 0-2.2-.6-2.7-1.6l-14.9-.2.2-.5z"/><path class="st10" d="M107.3 292.7c.7 0 1.4.6 1.4 1.4s-.6 1.4-1.4 1.4-1.4-.6-1.4-1.4.6-1.4 1.4-1.4zM101 300c.7 0 1.4.6 1.4 1.4s-.6 1.4-1.4 1.4-1.4-.6-1.4-1.4.7-1.4 1.4-1.4z"/><path class="st11" d="M107.1 347c.7 0 1.4.6 1.4 1.4s-.6 1.4-1.4 1.4-1.4-.6-1.4-1.4.6-1.4 1.4-1.4z"/><path class="st10" d="M101.8 320.8c.7 0 1.4.6 1.4 1.4s-.6 1.4-1.4 1.4-1.4-.6-1.4-1.4.7-1.4 1.4-1.4z"/><path class="st0" d="M365.3 326.5c.2-1 .3-2 .4-2.9l-5.6.1-6.9 9.4-7-.3-6.7 12.4h-.2c-1.7 0-3.2 1.4-3.2 3.2 0 1.7 1.4 3.2 3.2 3.2 1.7 0 3.2-1.4 3.2-3.2 0-.5-.2-1.2-.5-1.6l5.9-11 6.7.3 7-9.4 3.7-.2zm.2-13.4c-.1-1-.3-2-.5-2.9h-9.7l-4.7 10.4h-3.5c-.5-1-1.5-1.6-2.7-1.6-1.7 0-3.2 1.4-3.2 3.2 0 1.7 1.4 3.2 3.2 3.2 1.2 0 2.3-.7 2.8-1.7h5.3l4.7-10.4 8.3-.2zm-2.6-10.4c-.4-1-.8-2-1.3-2.9l-4.4.1-5.8-6.6-9.5-.5c-.5-1.1-1.5-1.8-2.8-1.8-1.7 0-3.2 1.4-3.2 3.2 0 1.7 1.4 3.2 3.2 3.2 1.2 0 2.2-.6 2.7-1.5l8.4.5 3.4 3.8-5.3.1c-.5-1-1.5-1.7-2.8-1.7-1.7 0-3.2 1.4-3.2 3.2 0 1.7 1.4 3.2 3.2 3.2 1.2 0 2.2-.6 2.7-1.6l14.9-.2-.2-.5z"/><path class="st10" d="M339.1 292.7c-.7 0-1.4.6-1.4 1.4s.6 1.4 1.4 1.4 1.4-.6 1.4-1.4-.7-1.4-1.4-1.4zm6.3 7.3c-.7 0-1.4.6-1.4 1.4s.6 1.4 1.4 1.4 1.4-.6 1.4-1.4-.7-1.4-1.4-1.4z"/><path class="st11" d="M339.3 347c-.7 0-1.4.6-1.4 1.4s.6 1.4 1.4 1.4 1.4-.6 1.4-1.4-.7-1.4-1.4-1.4z"/><path class="st10" d="M344.6 320.8c-.7 0-1.4.6-1.4 1.4s.6 1.4 1.4 1.4c.7 0 1.4-.6 1.4-1.4s-.7-1.4-1.4-1.4z"/><path class="st6" d="M197.8 126l-2.7 7.4s2.1 6.6 8.5 13.8c6.4 7.3 8.4 8.3 8.4 8.3s1.1-5.8 3.2-8.7c2.1-2.8 2.6-2.9 3.8-2.7s1.6-.2-3-2.5c-4.6-2.4-8.9-5.3-12.5-8.7-3.8-3.6-5.6-7-5.7-6.9zm6.5 49.2l-5.4-23.5c-2-1.8-2.9-3.1-2.9-3.1l6.4 27.2 1.9-.6zm-1.1-20l4.1 19 3-1-3.4-15.4c-.2-.1-.3-.2-.5-.3-1.2-.8-2.2-1.6-3.2-2.3zm7 4.7l2.2 12.6 2.3-.7-2-10.5c-.8-.4-1.6-.8-2.5-1.4zm5.4 2.7l.9 4.5.9-3.9-1.8-.6z"/><path class="st12" d="M215.9 141.5c-4.6-2.4-8.9-5.3-12.5-8.7-1.8-1.7-3.3-3.4-4.2-4.7 0 0 2.9 12.9 12.7 27.3 0 0 1.1-5.8 3.2-8.7 2.1-2.8 2.6-2.9 3.8-2.7s1.6-.2-3-2.5z"/><path class="st0" d="M224.9 159.3v-11.9c-1.5 0-3.1.3-4 1-2.3 1.8-3.9 7.9-3.7 8.4s.9 1.4 3 1.9 4.7.6 4.7.6zm0 3.4h-2.1s-1 .1-1.2.9c-.3.8-1.5 6.6-1.5 6.6s1.1-.4 2.3-.5 2.5 0 2.5 0v-7z"/><path class="st6" d="M252 126l2.7 7.4s-2.1 6.6-8.5 13.8c-6.4 7.3-8.4 8.3-8.4 8.3s-1.1-5.8-3.2-8.7c-2.1-2.8-2.6-2.9-3.8-2.7s-1.6-.2 3-2.5c4.6-2.4 8.9-5.3 12.5-8.7 3.8-3.6 5.6-7 5.7-6.9zm-6.5 49.2l5.4-23.5c2-1.8 2.9-3.1 2.9-3.1l-6.4 27.2-1.9-.6zm1.2-20l-4.1 19-3-1 3.4-15.4c.2-.1.3-.2.5-.3 1.1-.8 2.2-1.6 3.2-2.3zm-7.1 4.7l-2.2 12.6-2.3-.7 2-10.5c.8-.4 1.6-.8 2.5-1.4zm-5.4 2.7l-.9 4.5-.9-3.9 1.8-.6z"/><path class="st4" d="M224.9 159.3v-11.9c1.5 0 3.1.3 4 1 2.3 1.8 3.9 7.9 3.7 8.4s-.9 1.4-3 1.9-4.7.6-4.7.6zm0 3.4h2.1s1 .1 1.2.9c.3.8 1.5 6.6 1.5 6.6s-1.1-.4-2.3-.5-2.5 0-2.5 0v-7z"/><path class="st12" d="M246.1 133.1c-2.1 5.3-5.4 13.2-8.9 19.3.5 1.6.7 3 .7 3s1.9-1 8.4-8.3c6.4-7.3 8.5-13.8 8.5-13.8l-2.7-7.4s-1.8 3.4-5.5 6.8c-.1.3-.3.4-.5.4z"/><path class="st9" d="M184.4 70s-10.5-3.4-12-12.6c-1.5-9.3 9.6-7.5 17.3-4.4 7.6 3.2 42 12.5 45.3 13.9 3.3 1.5 5.7 3.2 5.9 3.6s-51.3-14.2-54.3-15.2c-2.1-.7-6.2-.5-7.8 1.2-2.7 2.9 3.1 11.5 5.6 13.5z"/><path class="st13" d="M199.7 85.6s.2 6.4 1.5 10.1c1.4 3.6 1.3 9 1 13.3-.2 4.3.6 6.9 2.9 10.2s4.8 4.5 4.8 4.5.1-1.5.8-3.1c.6-1.5 1.4-2.1 1.4-2.1s.8 7.4 6.2 11.6 8.5 3.8 8.5 3.8 6.3.6 8.8-2.7c2.5-3.4 5.6-12.4 6.5-11.9 1 .5.7 3 1.5 3.2s5-3.1 6.9-4.7c2-1.6 1.8-1.7 1.8-1.9 0-.2.2-1.1.2-1.1l-9.4-1.4s-3.5 7.2-8.9 8-8.7-6.4-15.4-5.3c-6.7 1.2-9.7-1.4-10.1-6.8-.4-5.4 1.6-9.6 6-9.4 4.4.3 9.4 3.8 11.1 5.3 1.7 1.5 2.1 2.3 2.1 2.3s-3.6-1.2-6.6-2c-1.3-.4-2.5-.5-3.1-.5-2.3-.1-3.1 1.7-3.1 1.7s3.6.5 4.8.8c1.2.4 3.3 1.7 3.2 1.7s-3.5-.5-5.3-.3-2.9 1.2-2.9 1.2-.4 1.7 2.3 1.7c2.6-.1 4.8-.8 7.2-.2 2.3.6 4.5 4.2 8.6 4.8s5.4-3 5.4-3-10-3.2-10.7-3.9c-.6-.7 19.3-9.2 19.3-9.2s-5.8.4-6.9 0c-1.2-.5-3.7-1.5-5.2-1.4-1.5.3-1 2.1-3.2 3.4s-3.5 1.4-3.5 1.4V90.8s-.5-1.1-1.5.1c-1.1 1.2-5.4 5.9-8.4 6.5-3 .5-9.6-3.4-13.1-5.6-3.5-2.3-5.3-6-5.3-6l-.2-.2z"/><path class="st8" d="M199.7 85.6s.2 6.4 1.5 10.1c.5 1.3.7 2.7.9 4.3 1.1.6 2.4 1.2 3.9 1.5 1.9.3 3.5.2 4.7-.1 1-1.1 2.4-1.7 4.1-1.6 1.7.1 3.6.7 5.3 1.5 1.6-1.4 4.8-4.7 5.2-5.4.3-.5 1.5-.9 2.7-.4v-4.8s-.5-1.1-1.5.1c-1.1 1.2-5.4 5.9-8.4 6.5-3 .5-9.6-3.4-13.1-5.6-3.5-2.3-5.3-6.1-5.3-6.1zm24.3 47.5c1.9.6 2.9.5 2.9.5s6.3.6 8.8-2.7c2.5-3.4 5.6-12.4 6.5-11.9 1 .5.7 3 1.5 3.2s5-3.1 6.9-4.7c2-1.6 1.8-1.7 1.8-1.9s.2-1.1.2-1.1l-9.4-1.4s-2.5 5.2-6.6 7.3c0 0-1.2 2-4.7 2.2s-6.2-2.5-7.7-3.3c-1.6-.7-3.4-.5-3.4-.5s1.8 1.1 3 2.8c1.2 1.7 3.8 2.5 3.8 2.5s1.3 3.4-2 7.4c-.6.7-1 1.3-1.6 1.6zm8.2-26.7c5.7-2.7 14.5-6.4 14.5-6.4s-5.8.4-6.9 0c-1.2-.5-3.7-1.5-5.2-1.4-1.3.3-1.1 1.7-2.5 2.9.5 1.1 1 2.5.6 3.5l-.5 1.4z"/><path class="st6" d="M205.8 83.9s1.9 3.8 6.4 4.8c4.5 1.1 5.6-2 5.6-2s-11.4-4.2-13-5.4c-1.7-1.2-1.8-3.3-3.8-4.4-2-1-3.5.2-5.2.4-1.7.1-2.7-1.2-2.7-1.2s.9 2.5 3.4 2.2 2.5-.8 3.9-.2c1.4.7 1.5 2.4 2.9 3.7s2.5 2 2.5 2.1z"/><path class="st8" d="M197 55.7l3.9 4.1c16.2 4.6 40.2 11.4 40.1 11-.2-.5-2.6-2.3-5.9-3.6-2.7-1.3-25.3-7.4-38.1-11.5zM258.9 73s2.3 1.4 7.1 3.2 8.7 2.1 9.3 6.4c.5 4.4-3.7 5.6-3.7 5.6s6.3.2 6.9-4.5c.6-4.6-3-6.7-5.8-7.7-2.9-1-13.8-2.9-13.8-3z"/><path class="st6" d="M248.8 83.9s-1.9 3.8-6.4 4.8c-4.5 1.1-5.6-2-5.6-2s11.4-4.2 13-5.4c1.7-1.2 1.8-3.3 3.8-4.4 2-1 3.5.2 5.2.4 1.7.1 2.7-1.2 2.7-1.2s-.9 2.5-3.4 2.2-2.5-.8-3.9-.2c-1.4.7-1.5 2.4-2.9 3.7s-2.5 2-2.5 2.1z"/><path class="st0" d="M201.9 46.1s2.3-8.6 3.3-9.7c1-1.2 3.7-1.7 11.5.5s22.4 6.6 22.4 6.6 2.6 2.9.5 6.4-8.2 5.5-16.7 2.8c-8.6-2.7-20.9-6.6-21-6.6z"/><path class="st9" d="M207.8 28.2s.9 2.1 4.1 3.2c3.2 1.1 35.3 10.7 35.3 10.7s-7.9-4.5-11.2-10 2.8-6.5 2.8-6.5-6.5-2.4-11.7-4.9c-5.3-2.6-6.7-4.3-10.6-3.9-4 .5-6 2.6-7.4 6.4s-1.3 5.1-1.3 5z"/><path class="st8" d="M250.7 29c.3.2 9 3.7 10.1 4.3 1.1.6 1.7 11.6 1.7 11.6s1.9-10.9.9-12.3c-1-1.4-12.7-3.6-12.7-3.6z"/><path class="st4" d="M264 51s-1.1.6-1.1 2.5.3 6.4 1.1 8.3c.9 1.8 2.5 3.5 2.1 2.6-.5-.9-2.1-13.4-2.1-13.4zm-24.9-7.6s-10.4-3.2-18.3-5.4c.8 1.2 1.5 2.6 1.5 4.2.1 2.4-.6 6.7-1.3 10 .6.2 1.3.4 1.9.6 8.6 2.7 14.7.7 16.7-2.8 2.2-3.6-.5-6.5-.5-6.6z"/><path class="st8" d="M224.3 35.2c10.3 3.1 22.9 6.9 22.9 6.9s-7.9-4.5-11.2-10 2.8-6.5 2.8-6.5-6.5-2.4-11.7-4.9c-1.9-.9-3.3-1.7-4.5-2.4 2.6 2.9 5.2 6.5 5.1 9.7 0 4.1-2 6.2-3.4 7.2z"/><path class="st6" d="M211.2 35.5c-3.7-.5-5.4-.1-6.1.7-1 1.2-3.3 9.7-3.3 9.7s1.3.4 3.2 1c.9-3.1 2-6.5 2.8-8.2.9-1.6 2.4-2.6 3.4-3.2zm-3.4-7.3s.7 1.7 3.3 2.8c.4-1.8 1.2-5.6 2.5-9.1.9-2.3 3.2-4.1 5.2-5.3-.7-.1-1.5-.1-2.4 0-4 .5-6 2.6-7.4 6.4-1.3 3.9-1.3 5.2-1.2 5.2z"/><path class="st14" d="M240.9 106.9s7.7-2.1 15.3-4.1c-.5 1.2-.7 2.5-.6 4.1.1 1 .3 1.8.6 2.5-.6 0-1.3-.1-2-.1-8.2-.4-14.4-1.7-14.7-1.9s1.4-.5 1.4-.5zm18.7-5c3.7-1 7.2-1.9 9.2-2.4-1.1 1.2-1.8 2.7-1.8 4.5 0 2.4 1.3 4.5 3.2 5.5-2.8.3-6.6.3-10.8.2-.6-.6-1.2-1.6-1.3-2.8-.1-2.3.8-3.9 1.5-4.8v-.2z"/><path class="st13" d="M193.3 81.8l1.5 12.3c-4-2.9-9.2-11.8-1.5-12.3z"/><path class="st8" d="M261.2 81.8l-1.5 12.3c3.9-2.9 9.1-11.8 1.5-12.3z"/><path class="st9" d="M269.1 104.9c0-.1 0-.3-.1-.4 0-.1.1-.2.1-.3.1-.3-.1-.9 0-1.5s.5-.8.5-.8.3-.4.4-.5.2-.3.3-.5.2-.2.4-.4.5-.4.6-.5.2-.2.4-.5 0 0 .4 0 .7-.1.7-.1.3-.2.5-.3c.2-.1.2-.1.5-.1h.5c.2 0 .2 0 .5.1s.4.2.9.3c.5.2.3.1.5.2.3.1.2 0 .3.2.2.2.3.4.5.5.2.2.5.4.5.6s.2.3.4.5.3.4.4.5 0 .3 0 .5c.1.3.1.3.2.5.1.1 0 .5 0 .6 0 .2.2 1 .2 1s-.3.5-.3.7c-.1.2-.1.3-.1.5s-.3 1-.5 1.2c-.1.2-.5.5-.5.5s-.3.5-.4.6c-.1.2-.5.5-.7.5-.3 0-.2.1-.5.2s-.5.2-.9.3c-.5.1-.5.1-.6 0-.2 0-.2 0-.4-.1-.2 0-.9-.1-1.1-.2-.3-.1-.7-.5-1-.7s-.5-.4-.6-.5c-.2 0-.3-.1-.5-.5-.2-.3-.2-.4-.2-.9s0-.3-.5-.8c-.2-.2-.3-.3-.3-.5l-.5.1z"/><path class="st15" d="M255.6 105.5c-5.3.6-10.3 1.3-11 1.4-.8.2-.7-.3-.4-.9-2 .5-3.1.8-4.1 1.1-.2 0-.9.3-.6.3.3.2 6.6 1.5 14.8 1.9.6 0 1.3.1 2 .1-.4-.7-.6-1.5-.6-2.5 0-.5 0-1-.1-1.4z"/><path d="M266.9 104l-8.8 1.2c-.1.5-.1 1-.1 1.5 0 1.3.6 2.4 1.3 3 4.2.1 8 .1 10.8-.2-1.9-1.1-3.2-3.2-3.2-5.5z" fill-rule="evenodd" clip-rule="evenodd" fill="#6b809b"/><path class="st6" d="M258.1 105.2l8.8-1.2c0-1.7.7-3.3 1.8-4.5-2 .5-5.4 1.4-9.2 2.4-.5.7-1.1 1.8-1.4 3.3z"/><path class="st8" d="M272.1 106.4c-.3-.2-.4-.5-.8-.9-.5-.3-.3-.1-.4-.2s0-.3-.1-.9-.3-.5-.5-.6c-.3-.2.1-3.2.1-3.2l-.2.2c-.1.2-.2.3-.3.5s-.4.5-.4.5-.5.3-.5.8c-.1.6.1 1.3 0 1.5 0 .1-.1.2-.1.3 0 .1 0 .3.1.4s.2.3.3.5c.5.5.5.3.5.8s-.1.6.2.9c.2.3.3.5.5.5.2.2.4.4.6.5.3.2.7.5 1 .7.3.1.9.2 1.1.2s.2 0 .4.1h.6c.5-.1.5-.2.9-.3.4-.1.4-.2.5-.2.3 0 .7-.3.7-.5.1-.2.4-.6.4-.6l.5-.5c.1-.2.5-1.1.5-1.2 0-.2 0-.3.1-.5s.3-.7.3-.7-.1-.8-.2-1c0-.2.1-.5 0-.6 0-.1-.1-.1-.1-.2-.2.2-.5.3-.5.4-.2.2 0 .1.2.4.2.2-.1.6-.2.7-.1 0-.8.4-.8.5s0 .6.2 1.3c.1.6-.4.8-.5.8s-.7-.5-1.2-.4c-.5.2-.5.6-.5.8s-.6.3-1.2.1c-.7-.3-.9-.6-1.2-.9z"/><path class="st6" d="M271.5 99.5c-.2.3-.3.4-.4.5s-.2.2-.4.3l.5.1.5-.2h.4c.3.1.3.1.5.2s0 .1.3.1.8-.2.9-.3c.1 0 .2-.2.5 0 .4.2.5.3.6.4s.1 0 .4.1.2-.1.4.2c.2.3.2.4.5.6s.2.2.4.3c.2.1.2 0 .4.2s.2.3.4.4c.1.1.2.1.3.1h.3v-.5c-.1-.2-.2-.5-.4-.5-.2-.2-.3-.3-.4-.5 0-.2-.4-.5-.5-.6-.2-.2-.3-.4-.5-.5-.2-.2 0-.1-.3-.2s.1 0-.5-.2c-.5-.2-.6-.2-.9-.3-.3-.1-.3-.1-.5-.1h-.5c-.3 0-.3 0-.5.1s-.5.3-.5.3-.4.1-.7.1-.2-.2-.4 0l.1-.1z"/><path class="st8" d="M209.5 103.4c.9-2.5 2.7-4.1 5.4-3.9 3.9.3 8.4 3.1 10.4 4.7-1.5-1.4-8.4-6.8-11.9-6-3.4 1-3.9 5.2-3.9 5.2z"/><path class="st6" d="M228 107.1s-3.6-1.2-6.6-2c-1.3-.4-2.5-.5-3.1-.5-2.3-.1-3.1 1.7-3.1 1.7s3.6.5 4.8.8c1.2.4 3.3 1.7 3.2 1.7s-3.5-.5-5.3-.3-2.9 1.2-2.9 1.2-.4 1.7 2.3 1.7c2.6-.1 4.8-.8 7.2-.2 2.1.5 4 3.5 7.3 4.5h4.2c1.8-.8 2.5-2.7 2.5-2.7s-10-3.2-10.7-3.9c-.2-.2.8-.7 2.5-1.5-1.3-.2-2.2-.4-2.3-.5zm-6.9 8.7c-2.4.4-4.2.4-5.7-.1h-1.2c1 1.1 2.1 2.1 3 2.4 2 .5 8 .1 10.2 1.9 1.6 1.1 3.8 2.8 6.7 2.6 3.5-.2 4.7-2.2 4.7-2.2-.7.4-1.5.6-2.3.7-4.9.7-8.1-5.1-13.6-5.4h-.9c-.3 0-.7.2-.9.1z"/><path class="st9" d="M353.6 366.9s29.4-9.4 36.9-30.5c2.5-7.2 2.6-16.1 1.5-25 2.7-1.2 6.9-3.1 11.3-5.1 2.5 4.5 6.2 7.1 9.3 6.2 3.5-1.1 5-6.4 3.7-12.3 2.4-1.2 4.2-2.2 5.1-2.8 2.1-1.5 3.5-5.5 4.5-10.2 2.1 8 3.3 13.9 2.8 15.2-1.7 4.6-13.3 33.9-14.5 34.6-1.4.7-9.6 4.5-22.8 14.4-13.3 10-16.3 12.2-26 14.4-9.9 2.4-11.9 1.1-11.8 1.1zm36.7-162.5c-1.5-8 .5-8.3-6.7-10.4l-21.8-5.7c-2.6-.7-5.1-1.8-.5-2l14-.6c1.9-.1 5-.6 3.4-3.3-4.5-7.2-9.3-13-15.1-19-6.7-6.8-29.8-10.9-29.8-10.9l18.7-3.6-5.1-10.5s-6.3-10.2-7.5-10.5c-2.3-.6-53.2-16.4-53.4-16.6-2-1.4-4.7-2.5-7.6-3.5 0 0 5.7 3.5 6.3 13.6v1.5c4.2 3.7 7.4 6.6 7.5 7.1.7 1.4 0 .1.7 4.6s2.2 22.4 2.2 22.4l-15.9-2.2s1.8 1.7 7.4 7.3 17.5 21.6 17.5 21.6l-6.9 13.8 2.1 51.5s1 2.3 1.5 2.5 3.4-1.9 4.8-2.3c1.5-.5 27.2 1.6 27.2 1.6s0-4.8-11.4-33.8c-11.5-29-18.3-64.6-16.9-65s16.5 35.8 20.2 41.3c3.6 5.4 28 24.2 28.5 25.2.5.9-17.3-7.1-17.3-7.1s-1.5 2.5-1.2 4.6c.4 2.3 13.1 31.2 13.5 32.2.5 1 21.3-6.5 21.3-6.5l-.5-9.4s15.2 9.8 24.2 25.6 7.4 19.9 7.4 19.9-15.2-19.9-23.8-22.1c-8.6-2.2-20.9 4.1-20.9 4.1s15.8 1 21.9 10.2c3.5 5.3 9.4 19.3 12.4 34.1 2.7-1.2 6.4-2.8 10.2-4.5-1.1-5.8.4-10.9 3.8-12 3-1 6.6 1.5 9.1 5.9 1.6-.8 2.9-1.5 3.5-2 1.6-1.2 2.8-12.4 3.5-19.2.1-.8.2-1.6.3-2.5-5.7-20.1-12.7-42.2-13.3-43.3-.9-1.8-6.2-5.5-17.5-22.4v.3zm-6.7-10.4l-.2-.4.2.4z"/><path class="st8" d="M296.3 123.4c-.1 2.7 14.7 35 21.6 44 6.9 9.1 4.3 12 4.3 12l-5.1-2.1c-5.4-11.8-11.5-25.5-12.4-25.3-.6.2.7 9.2 3.6 21.8l-6.4-2.6-6.6-38-8-14.6.4-6.9c17.1 5.4 34.4 10.8 51.6 16h.8c.1.1.2.1.2.2l.1.1.1.1.1.1.1.1.1.1v.1c.1.1.2.2.2.3l.1.1v.1l.1.1.1.1.1.1.1.1v.1l.1.1.1.2.1.1.1.1c2.5 3.3 4.2 5.7 5.7 8.5 1.5 2.9 2.8 6.1 4.8 10.3l-6.7 1.3c-13.5-23.4-49.1-33.3-49.4-26.7zm44.5 5.2c.1.1.2.2.2.3l-.2-.3z"/><path class="st9" d="M96.3 366.9s-29.4-9.4-36.9-30.5c-2.5-7.2-2.6-16.1-1.5-25-2.7-1.2-6.9-3.1-11.3-5.1-2.5 4.5-6.2 7.1-9.3 6.2-3.5-1.1-5-6.4-3.7-12.3-2.4-1.2-4.2-2.2-5.1-2.8-2.1-1.5-3.5-5.5-4.5-10.2-2.1 8-3.3 13.9-2.8 15.2 1.7 4.6 13.3 33.9 14.5 34.6 1.4.7 9.6 4.5 22.8 14.4 13.3 10 16.3 12.2 26 14.4 9.9 2.4 11.9 1.1 11.8 1.1zm-35-172c-2.4 1.6-1.6 2.8-.1 6.9-6.7 10.1-18.3 23.1-19.3 25-.5 1.1-7.5 23.2-13.3 43.3.1.7.2 1.5.3 2.5.7 6.9 1.9 18 3.5 19.2.6.5 1.9 1.2 3.5 2 2.5-4.4 6.1-6.8 9.1-5.9 3.4 1.1 4.9 6.2 3.8 12 3.7 1.7 7.4 3.4 10.2 4.5 3-15 9-28.9 12.4-34.1 6.1-9.3 21.9-10.2 21.9-10.2S81 253.7 72.4 256c-8.6 2.2-23.8 22.1-23.8 22.1s-1.7-4.1 7.4-19.9c9.1-15.8 24.2-25.6 24.2-25.6l-.5 9.4s20.9 7.5 21.3 6.5c.5-1 13.2-30 13.5-32.2s-1.2-4.6-1.2-4.6-17.9 8-17.3 7.1c.5-.9 24.8-19.7 28.5-25.2 3.6-5.4 18.8-41.7 20.2-41.3s-5.4 36-16.9 64.8-11.4 33.8-11.4 33.8 25.7-2.1 27.2-1.6 4.3 2.5 4.8 2.3 1.5-2.5 1.5-2.5l2.1-51.5-6.9-13.8s11.9-16 17.5-21.6 7.4-7.3 7.4-7.3l-15.9 2.2s1.5-18 2.2-22.4c.7-4.5 0-3.3.7-4.6s29.2-26.1 29.2-26.1-15.8 2.8-22.9 7.5c0 0-10.6 19.5-11.4 19.2-.5-.3 2.2-10.4 3.9-16.9-14.3 4.5-44.3 13.8-46 14.3-2.9.8-10.9 17.4-12.6 21.2l18.7 3.6s-21.5 2.5-29.8 10.9c-5 5.1-8.5 11.2-13.4 19.4 0 0-.2 1.4 1.5 1.5s15.9-3.2 16.3-2.9c2.8 1.2-27.9 12.3-29.2 13.1z"/><path class="st8" d="M152.1 130.3l-7 23.8c.1-1.4.1-2.1-.1-2.2-1.4-.4-16.5 35.8-20.2 41.3-3.6 5.4-28 24.2-28.5 25.2-.5.9 17.3-7.1 17.3-7.1s1.5 2.5 1.2 4.6c-.4 2.3-13.1 31.2-13.5 32.2-.5 1-21.3-6.5-21.3-6.5l.5-9.4s-15.2 9.8-24.2 25.6-7.4 19.9-7.4 19.9.7-.9 1.9-2.4c0 0 8.9-5.3 12.2-5.5 1.5-.1 4.5.8 7.6 2-3.5 6.3-8.5 18.9-11.3 32.2-2.7-1.2-6.4-2.8-10.2-4.5 1.1-5.8-.4-10.9-3.8-12-3-1-6.6 1.5-9.1 5.9-1.6-.8-2.9-1.5-3.5-2-1.6-1.2-2.8-12.4-3.5-19.2-.1-.8-.2-1.6-.3-2.5 3.5-12.2 7.4-25.2 10.1-33.7 0-.1.1-.2.1-.3l.3.2s-4 12.1 5.9 13c4.5.5 18.7-18 33.3-31 13.4-11.9 27.3-18.4 28.8-19.5 7.4-5.5 11-11.3 10.6-12.2s-25.2 2.9-26.3 2.7c-1.1-.1 5-4.6 19.6-13s21.6-15.5 24.3-21.3c2.7-5.7 8.5-22.3 9.7-28 1.3-5.7-6.4-8.4-6.4-8.4 6.4-2 12.6-3.9 17.3-5.4-1.7 6.4-4.5 16.6-3.9 16.9v.6h-.2zM304.8 152l-16.3-40.2c-1.3-.5-2.1-.6-2.1-.6-2-1.4-4.7-2.5-7.6-3.5 0 0 5.7 3.5 6.3 13.6v1.5c4.2 3.7 7.4 6.6 7.5 7.1.7 1.4 0 .1.7 4.6s2.2 22.4 2.2 22.4l-15.9-2.2s1.8 1.7 7.4 7.3 17.5 21.6 17.5 21.6l-6.9 13.8 2.1 51.5s1 2.3 1.5 2.5 3.4-1.9 4.8-2.3c1.5-.5 27.2 1.6 27.2 1.6s0-4.8-11.4-33.8c-11.6-28.9-18.4-64.5-17-64.9z"/><path class="st7" d="M412.5 312.4c-3.1 1-6.8-1.6-9.3-6.2-4.4 2-8.5 3.8-11.3 5.1 1.2 9 1.1 17.8-1.5 25-7.5 21.2-36.9 30.5-36.9 30.5s2 1.3 11.7-1 12.7-4.5 26-14.4 21.5-13.7 22.8-14.4c1.4-.7 12.9-30 14.5-34.6.5-1.3-.7-7.2-2.8-15.2-1 4.6-2.4 8.7-4.5 10.2-.9.6-2.7 1.6-5.1 2.8 1.4 5.9-.1 11.1-3.6 12.2z"/><path class="st6" d="M356.5 260s6.4.4 12.5 3c3.5-1.1 7.9-2.5 10.9-2.8 1.6-.2 3.3-.3 4.6-.2-2.5-2.1-5-3.6-7.2-4.2-8.6-2.1-20.8 4.1-20.8 4.2z"/><path class="st7" d="M37.5 324c-4.6-2-8-4.5-10.5-7.1 3.7 9.3 8 19.4 8.8 19.9 1.4.7 9.6 4.5 22.8 14.4 13.3 10 16.3 12.2 26 14.4 9.7 2.3 11.7 1 11.7 1s-29.4-9.4-36.9-30.5c-.4-1-.6-1.9-.9-3-8.1-3.6-16-7.2-21-9.4v.3z"/><path class="st8" d="M128.1 216.9c-11.4 28.9-11.4 33.8-11.4 33.8s25.7-2.1 27.2-1.6 4.3 2.5 4.8 2.3 1.5-2.5 1.5-2.5l1.8-45.1c-3.2 4.7-7.2 9.5-11.4 11.8-4.5 2.4-8.6 1.7-11.9.3-.3.3-.4.6-.6 1z"/><path class="st9" d="M72.5 255.9c-6.8 1.7-17.6 14.3-21.9 19.7 0 0 8.9-5.3 12.2-5.5 1.5-.1 4.5.8 7.6 2 .4-.7.8-1.4 1.2-1.9 6.1-9.3 21.9-10.2 21.9-10.2s-12.3-6.3-21-4.1z"/><path class="st14" d="M208.1 332.7s-.6 10.9-2.6 16.7c-1.7 5.1-7.2 8.9-8.4 9.7-.4.1-.5.1-.3.2.6.3 25.7 12.2 25.7 12.2v-28.9s0-1.5 1.2-1.5h2.6c1.3 0 1.2 1.5 1.2 1.5v28.9s25.1-11.9 25.7-12.2c.2-.1 0-.1-.3-.2-1.4-.8-6.7-4.6-8.4-9.7-1.9-5.8-2.6-16.7-2.6-16.7s-.3-1.6-1.5-2.5c-1.2-.8-4-3.4-5.8-11.3-1.8-8-1.9-7.9-.7-9.1s18.3-9.3 19.2-9.6c.9-.3.1-2.6-1.1-4-.9-1.1-2.6-1.6-7 0-.5.2-.9.4-.9.4s-.5.3-1.5.7c-.2.1-.4.2-.5.3-2.5 1.2-6.4 3.1-9.5 4.6-4.6 2.4-7.5 2.2-7.5 2.2s-2.8.2-7.5-2.2c-3.1-1.5-7.1-3.5-9.5-4.6-.2-.1-.4-.2-.5-.3-.9-.5-1.5-.7-1.5-.7s-.4-.2-.9-.4c-4.3-1.6-6-1.2-7 0-1.1 1.4-1.9 3.6-1.1 4 .9.3 18 8.4 19.2 9.6s1.1 1.1-.7 9.1-4.6 10.5-5.8 11.3-1.5 2.5-1.5 2.5h-.2z"/><path class="st17" d="M208.1 332.7s-.5 9.4-2.2 15.4v15.6c2.5 1.2 5.1 2.5 7.5 3.5V325c-1.5 3.5-3.1 4.8-3.9 5.4-1.2.7-1.4 2.4-1.4 2.3zm5.3-32.4c-2.1-1-4.1-2-5.5-2.6-.2-.1-.4-.2-.5-.3-.7-.4-1.2-.5-1.4-.6v7.8c2.7 1.4 5.5 2.7 7.5 3.8l-.1-8.1z"/><path class="st18" d="M208.1 332.7s-.6 10.9-2.6 16.7c-1.7 5.1-7.2 8.9-8.4 9.7-.4.1-.5.1-.3.2s1.7.8 4 1.9c1.8-1.4 5.1-4.2 6.8-7 2.4-4.1 3.7-19 3.9-20.3s2.8-1.3 4.1-8.3 1.2-12.9 1.2-12.9c-.2 1.2-.6 3.1-1.4 6.2-1.8 8-4.6 10.5-5.8 11.3-1.3.8-1.5 2.5-1.5 2.5zm19-28.5c-1.5.3-2.3.3-2.3.3s-2.8.2-7.5-2.2c-3.1-1.5-7.1-3.5-9.5-4.6-.2-.1-.4-.2-.5-.3-.9-.5-1.5-.7-1.5-.7s-.4-.2-.9-.4c-4.3-1.6-6-1.2-7 0-1.1 1.4-1.9 3.6-1.1 4 .2.1.7.3 1.5.7 1-2.6 2.3-3.5 3.9-3 1.9.7 10.1 5 14.9 7.2 4.8 2.2 9.3 2.3 9.3 2.3l.7-3.3z"/><path class="st15" d="M224.9 341.2h1.3c1.3 0 1.2 1.5 1.2 1.5v28.9s25.1-11.9 25.7-12.2c.2-.1 0-.1-.3-.2-1.4-.8-6.7-4.6-8.4-9.7-1.9-5.8-2.6-16.7-2.6-16.7s-.3-1.6-1.5-2.5c-1.2-.8-4-3.4-5.8-11.3-1.8-8-1.9-7.9-.7-9.1s18.3-9.3 19.2-9.6c.9-.3.1-2.6-1.1-4-.9-1.1-2.6-1.6-7 0-.5.2-.9.4-.9.4s-.5.3-1.5.7c-.2.1-.4.2-.5.3-2.5 1.2-6.4 3.1-9.5 4.6-4.6 2.4-7.5 2.2-7.5 2.2l-.1 36.7z"/><path class="st14" d="M162.4 207.8v53.7s9.1-.5 10.7 0c1.2.4 21.3 7.8 30.8 11.6 4.6 1.8 6.2 3.8 4.3 9.1-.6 1.6.5 1.8 1.8 2.4 4.3 1.9 12.1 5.2 12.4 2.3.3-1.8.1-18.8.6-20.9s1.9-1.5 1.9-1.5 1.4-.5 1.9 1.5c.5 2.1.4 19.1.6 20.9.3 1.8 2.6 1.2 5.5.4s2.6-2.1 2.6-2.1-1.5-7.1-.7-7.9c.7-.8 40.3-15.3 41.9-15.8 1.5-.5 10.7 0 10.7 0v-53.7c-.2-2.6-.5-3.3-3.1-2.9 0 0-51.9 15.8-54.4 16.6-2.5.7-3.4 3.5-3.4 3.5s-.1 2.5 0 6.5-1.6 4.8-1.6 4.8-1.7-.7-1.6-4.8c.1-4 0-6.5 0-6.5s-.9-2.8-3.4-3.5-54.4-16.6-54.4-16.6c-2.5-.5-2.9.3-3.1 2.9z"/><path class="st17" d="M196.3 270.2c2.8 1.1 5.4 2.1 7.4 2.9.9.4 1.7.7 2.5 1.2v-51.9s.4-1.5 2.3-1.1 11 3.8 12.3 4.4 2.5 2.4 2.5 4.5v-5.1s-.9-2.8-3.4-3.5c-1.2-.4-13.8-4.2-26.5-8.1 1.2 1.3 2.5 3.1 2.9 5.2.8 3.4.3 36.7 0 51.5z"/><path class="st15" d="M162.4 207.8v53.7s9.1-.5 10.7 0c.4.1 2.9 1 6.4 2.4 0-15.1-.1-47.2 0-49.5.1-1.5 2.1-2.9 4-3.9l-17.9-5.4c-2.6-.6-2.9.2-3.2 2.7z"/><path class="st18" d="M224.9 264.5c.2-.1 1.4-.4 1.9 1.5.5 2.1.4 19.1.6 20.9.3 1.8 2.6 1.2 5.5.4s2.6-2.1 2.6-2.1-1.5-7.1-.7-7.9c.7-.8 40.3-15.3 41.9-15.8 1.5-.5 10.7 0 10.7 0v-53.7c-.2-2.6-.5-3.3-3.1-2.9 0 0-51.9 15.8-54.4 16.6-2.5.7-3.4 3.5-3.4 3.5s-.1 2.5 0 6.5c.1 3.8-1.5 4.7-1.6 4.8v28.2z"/><path class="st14" d="M238.5 275.6c1.8-.7 4.2-1.6 6.9-2.6v-52.1s-.2-3.7 3.7-5.2l-10.6 3.3v56.6z"/><path class="st15" d="M260.6 267.4c8.3-3.1 15.5-5.7 16.2-5.9 1.5-.5 10.7 0 10.7 0v-53.7c-.2-2.6-.5-3.3-3.1-2.9 0 0-14.3 4.4-28.3 8.6 0 0 2.5 2.2 5.5 1.4 3.1-.9 8.8-3.6 9-1.4.1 2.3 0 43 0 43s1.3 4.6-6.1 8c-1.6.7-2.9 1.7-3.9 2.9z"/><path class="st14" d="M166.6 199.1s52.9 17.2 55 17.9c2.2.6 3.2.6 3.2.6s1 0 3.2-.6 55-17.9 55-17.9.3-.1.3-.5c-.1-.5-.6-.6-.6-.6s-51.7-18.4-53.6-19c-2-.6-6.9-.6-8.9 0-1.9.6-53.5 18.9-53.5 18.9s-.5.2-.6.6.3.5.3.5h.2v.1z"/><path class="st18" d="M224.9 217.6s1 0 3.2-.6 55-17.9 55-17.9.3-.1.3-.5c-.1-.5-.6-.6-.6-.6s-51.6-18.3-53.5-18.9c-1-.3-2.5-.5-4.2-.5l-.4 1.8v3.3s7.7 8.7 8.6 17c.8 8.3-8.6 17.1-8.6 17.1l.2-.2z"/><path class="st17" d="M170.5 244.1l39.3 13.6c1.8.6 3.4 2.9 3.4 5s-1.5 3.3-3.4 2.6l-39.3-13.6c-1.8-.6-3.4-2.9-3.4-5 0-2 1.6-3.2 3.4-2.6zm-1.8-23.1l42.8 14.8c.9.4 1.7 1.5 1.7 2.5s-.7 1.6-1.7 1.3l-42.8-14.8c-.9-.4-1.7-1.5-1.7-2.5 0-1.1.7-1.7 1.7-1.3zm0 11.3l42.8 14.8c.9.4 1.7 1.5 1.7 2.5s-.7 1.6-1.7 1.3L168.7 236c-.9-.4-1.7-1.5-1.7-2.5 0-.9.7-1.5 1.7-1.2z"/><path class="st19" d="M171.3 243l39.3 13.6c1.8.6 3.4 2.9 3.4 5s-1.5 3.3-3.4 2.6l-39.3-13.6c-1.8-.6-3.4-2.9-3.4-5 0-2 1.6-3.2 3.4-2.6zm-1.7-23.1l42.8 14.8c.9.4 1.7 1.5 1.7 2.5s-.7 1.6-1.7 1.3l-42.8-14.8c-.9-.4-1.7-1.5-1.7-2.5-.1-1 .7-1.7 1.7-1.3zm0 11.3l42.8 14.8c.9.4 1.7 1.5 1.7 2.5s-.7 1.6-1.7 1.3L169.6 235c-.9-.4-1.7-1.5-1.7-2.5-.1-1 .7-1.6 1.7-1.3z"/><path class="st0" d="M186.2 251l24.2 8.4c.5.2.8.7.8 1.2s-.4.8-.8.6l-24.2-8.4c-.5-.2-.8-.7-.8-1.2s.3-.8.8-.6zm-13.1-4.6c.5.2 1 .8 1 1.4s-.5.9-1 .6c-.5-.2-1-.8-1-1.4s.5-.9 1-.6zm4.4 1.5c.5.2 1 .8 1 1.4s-.5.9-1 .6c-.5-.2-1-.8-1-1.4s.4-.8 1-.6zm4.2 1.5c.5.2 1 .8 1 1.4s-.5.9-1 .6c-.5-.2-1-.8-1-1.4s.5-.9 1-.6z"/><path class="st19" d="M281.1 211.7l-14.2 5.3c-.5.2-1 .9-1 1.5s.5 1 1 .8l14.2-5.3c.5-.2 1-.9 1-1.5s-.5-1-1-.8zm0 4.5l-24.3 9.1c-.5.2-1 .9-1 1.5s.5 1 1 .8l24.3-9.1c.5-.2 1-.9 1-1.5 0-.7-.5-1-1-.8zm0 4.5l-18.3 6.8c-.5.2-1 .9-1 1.5s.5 1 1 .8l18.3-6.8c.5-.2 1-.9 1-1.5s-.5-1-1-.8z"/><path class="st6" d="M246.6 232.6l1.6 5.3 5.3 1.6-5.3 1.6-1.6 5.3-1.7-5.3-5.2-1.6 5.2-1.6z"/><path class="st19" d="M177.5 197.2s43 14 44.8 14.5 2.6.5 2.6.5.8 0 2.6-.5 44.8-14.5 44.8-14.5.3-.1.2-.5c0-.4-.5-.5-.5-.5s-42-14.9-43.5-15.3c-1.6-.5-5.6-.5-7.3 0-1.5.5-43.5 15.3-43.5 15.3s-.5.2-.5.5c.1.4.3.5.3.5z"/><path class="st6" d="M259.7 181l1.6 5.5 5.4 1.7-5.4 1.6-1.6 5.5-1.7-5.5-5.4-1.6 5.4-1.7z"/><path class="st18" d="M191.2 196.1s30.6 9.9 31.9 10.4c1.3.4 1.9.4 1.9.4s.6 0 1.9-.4 31.9-10.4 31.9-10.4.2 0 .2-.3-.4-.4-.4-.4-29.8-10.6-31-10.9c-1.2-.4-4-.4-5.2 0-1.1.4-31 10.9-31 10.9s-.3.1-.4.4c.1.3.3.3.2.3z"/><path class="st6" d="M196.5 191.3l2.1 6.6 6.6 2.1-6.6 2-2.1 6.6-2-6.6-6.6-2 6.6-2.1z"/><path class="st19" d="M224.9 187.1c10.5 0 19.1 3.5 19.1 7.7 0 4.3-8.5 7.7-19.1 7.7-10.5 0-19.1-3.5-19.1-7.7 0-4.3 8.5-7.7 19.1-7.7z"/><path class="st9" d="M224.9 188.6c8.8 0 16 2.7 16 6.2 0 3.4-7.2 6.2-16 6.2s-16-2.7-16-6.2c0-3.3 7.2-6.2 16-6.2z"/><path class="st6" d="M224.9 189.6c7.5 0 13.5 2.4 13.5 5.2 0 2.9-6.1 5.2-13.5 5.2-7.5 0-13.5-2.4-13.5-5.2-.1-2.9 6-5.2 13.5-5.2z"/><linearGradient id="SVGID_1_" gradientUnits="userSpaceOnUse" x1="224.86" y1="123.4" x2="224.86" y2="198.4"><stop offset="0" stop-color="#fff" stop-opacity="0"/><stop offset="1" stop-color="#fff"/></linearGradient><path d="M212.3 195c-5.8-11.9-13.2-24.1-20.9-35.8-7.9-12.1-17.2-23.9-26.9-35.8h120.8c-9.8 11.9-19 23.7-27 35.8-7.6 11.7-15.1 23.9-20.9 35.8-4.6 1.8-8.2 1.5-12.5 3.4-4.5-1.8-8-1.6-12.6-3.4z" fill-rule="evenodd" clip-rule="evenodd" fill="url(#SVGID_1_)"/><path d="M224.4 184.3c.1-.3.1-.5.4-.4.4.1.9 1 .7 1.5s-.7.8-1.3.6c-.4-.1-.3-.3-.2-.6l.4-1.1zm-3.3-21.9c.9.2 1.5 1.1 1.2 2-.2.9-1.1 1.5-2 1.2-.9-.2-1.5-1.1-1.2-2 .1-.9 1-1.5 2-1.2zm-8-32.2c1.3.3 2.1 1.6 1.7 2.9-.3 1.3-1.6 2.1-2.9 1.7-1.3-.3-2.1-1.6-1.7-2.9.2-1.2 1.6-2 2.9-1.7zm-6.4 44.1c.5.1.9.7.7 1.3-.1.5-.7.9-1.3.7-.5-.1-.9-.7-.7-1.3.1-.5.8-.9 1.3-.7zm32.4-4.5c.5.1.7.5.6 1-.1.5-.5.7-1 .6-.5-.1-.7-.5-.6-1.1.1-.4.6-.6 1-.5zm9.3-20.1c.5-.5.9-1.1 1.5-.5.9.8 1.2 3.5.3 4.6-1.1 1.2-2.8 1.4-4.1.2-.8-.7-.4-1.2.2-1.8l2.1-2.5zm5.2-9.8c-.7.8-1.7 1.7-2.1 1.4-.5-.5-.9-2.8.2-4 1-1.1 2.6-1.8 3.9-.7.7.6.1 1-.6 1.8l-1.4 1.5zm-9.2 10.2c-.5.5-1.1 1.4-1.9.6-1.8-1.6-1.1-3.8-2.1-4.7-.5-.5-4.7 2.5-5.3 3.1-.5.5 1.2 4.5 2.7 5.8.9.8 1.1 1.5.4 2.5-.5.6 0 .8.5 1.4s.9 1 1.5.4c.5-.6 1.2-.9 1.8-.4 3.2 2.8 8.1 2.5 11.5-1.5 3-3.4 2.8-7.3.5-11.3-.9-1.6-.5-2.2.5-3.5l2.1-2.4c.4-.5 1.1-1.5 1.8-.8 1.5 1.4 1.3 3.1 1.9 3.7.4.4 4.4-1.9 4.5-2.1.5-.6-1.8-3.6-2.2-4.1-.7-.9-1.7-1.6-1.1-2.4.4-.5.6-.6.1-1.1s-1.4-1.3-1.9-.7c-.6.7-1.1.5-1.6.2-3.7-2.3-7.9-1.5-10.5 1.4-2.6 3-2.3 6.6-.5 10.1 1 1.7.6 2-.6 3.4l-2.3 2.5.2-.1zm-40.7 3.3c-.2-.5-.5-1 .2-1.3.8-.4 2.9.5 3.3 1.5.5 1.2-.1 2.5-1.4 2.9-.8.3-.9-.2-1.2-.7l-.9-2.4zm-4.8-7.1c.3.8.5 1.8.2 1.9-.5.2-2.3-.4-2.7-1.6-.4-1.1-.3-2.5.9-2.9.6-.3.7.4 1 1.1l.6 1.5zm3.7 10c.2.5.5 1.3-.3 1.5-1.7.6-3-.6-4-.3-.5.2 0 4.1.2 4.7.2.5 3.5.7 5 .2.9-.4 1.5-.3 1.8.6.3.5.6.3 1.1.1s1-.3.8-.9c-.3-.6-.2-1.2.5-1.4 3.1-1.2 4.6-4.6 3.2-8.4-1.2-3.3-4-4.5-7.5-4.5-1.5 0-1.7-.4-2.2-1.6l-.9-2.4c-.2-.5-.6-1.3.1-1.5 1.5-.5 2.6.3 3.3 0 .4-.2.3-3.6.2-3.9-.3-.6-3.2-.1-3.6 0-.8.2-1.7.6-2-.1-.2-.4-.2-.6-.7-.5-.5.2-1.4.5-1.2 1.1.3.7 0 .9-.5 1.2-2.9 1.7-3.9 4.9-2.8 7.7 1.1 2.9 3.7 4 6.7 4 1.5 0 1.6.3 2.1 1.6l.9 2.5-.2.3zm22.1 24.1c-.1.4-.3.8-.5.7-.3-.1-.7-.7-.5-1.4.2-.5.6-1 1.2-.8.3.1.2.4.1.7l-.3.8zm-1.5 4.6c-.1.3-.2.6-.5.5-.8-.3-.9-1.1-1.4-1.3-.2-.1-1.2 1.5-1.3 1.7s1 1.3 1.7 1.5c.5.1.5.4.5.7-.1.3.1.3.4.4.3.1.5.2.5-.1.1-.3.3-.5.5-.4 1.5.5 3-.4 3.5-2.2.5-1.5-.2-2.8-1.5-3.7-.5-.5-.5-.6-.4-1.2l.4-1.1c.1-.2.2-.6.5-.5.7.2.8.8 1.2.9.2.1 1.1-1.3 1.2-1.4.1-.3-1.1-.9-1.4-1-.4-.2-.8-.3-.7-.6.1-.2.1-.3-.1-.4s-.6-.2-.7 0c-.1.4-.3.4-.5.3-1.5-.2-2.8.6-3.2 2-.5 1.4.3 2.5 1.4 3.4.5.5.5.5.3 1.2l-.4 1.2v.1z" fill="#ffaf02" fill-opacity=".788"/><path d="M110.3 323.1c-.5-.4-.5-1-.2-1.5.4-.5 1-.5 1.5-.2 0 0 11.7 9.6 27.9 15.4 7 2.5 12.2 4.2 16.1 5.3 5.2 1.5 7.9 2 8.9 2 2.1 0 24.2-.9 24.2-.9.5 0 1.1.5 1.1 1s-.5 1.1-1 1.1c-.1 0-22.5.9-24.3.9-1.2 0-4.1-.5-9.5-2.1-4-1.2-9.3-2.8-16.2-5.4-16.6-5.8-28.5-15.6-28.5-15.6zm4.6-17.3c-.5-.1-1-.6-.9-1.2.1-.5.6-1 1.2-.9.1 0 17.6 2.8 24.2 3.5 4.3.5 15.5 1 23.6 1.5 4.4.3 7.7.4 8.6.5 2.6.3 22.6 7.7 22.6 7.8.5.2.8.8.6 1.4s-.8.8-1.4.6c-.1 0-19.7-7.4-22.1-7.6-.8-.1-4.2-.3-8.5-.5-8.1-.5-19.4-1-23.7-1.5-6.5-.6-24.2-3.5-24.2-3.6zm5.2-18.7c-.5.1-1.1-.3-1.2-.9-.1-.5.3-1.1.9-1.2.1 0 43.4-6.4 50.2-6.3 6.8.2 19.6 3.8 19.6 3.8.5.2.9.7.7 1.3-.2.5-.7.9-1.3.7 0 0-12.5-3.6-19.1-3.8-6.4-.2-49.6 6.3-49.8 6.4zm-3.3 66.3c-.5-.4-.5-1.1-.1-1.5.4-.5 1.1-.5 1.5-.1.1.1 17.3 16.2 25 18.8 7.7 2.6 21.8 4.9 21.9 4.9.5.1 1 .6.9 1.2s-.6 1-1.2.9c0 0-14.3-2.3-22.3-5-7.9-2.9-25.6-19.3-25.7-19.2zm216.8-30.3c.5-.4.5-1 .2-1.5-.4-.5-1-.5-1.5-.2 0 0-11.7 9.6-27.9 15.4-7 2.5-12.2 4.2-16.1 5.3-5.2 1.5-7.9 2-8.9 2-2.1 0-24.2-.9-24.2-.9-.5 0-1.1.5-1.1 1s.5 1.1 1 1.1c.1 0 22.5.9 24.3.9 1.2 0 4.1-.5 9.5-2.1 4-1.2 9.3-2.8 16.2-5.4 16.6-5.8 28.6-15.6 28.5-15.6zm-4.5-17.3c.5-.1 1-.6.9-1.2-.1-.5-.6-1-1.2-.9-.1 0-17.6 2.8-24.2 3.5-4.3.5-15.5 1-23.6 1.5-4.4.3-7.7.4-8.6.5-2.6.3-22.6 7.7-22.6 7.8-.5.2-.8.8-.6 1.4s.8.8 1.4.6c.1 0 19.7-7.4 22.1-7.6.8-.1 4.2-.3 8.5-.5 8.1-.5 19.4-1 23.7-1.5 6.5-.6 24.2-3.5 24.2-3.6zm-5.2-18.7c.5.1 1.1-.3 1.2-.9.1-.5-.3-1.1-.9-1.2-.1 0-43.4-6.4-50.2-6.3s-19.6 3.8-19.6 3.8c-.5.2-.9.7-.7 1.3.2.5.7.9 1.3.7 0 0 12.5-3.6 19.1-3.8s49.5 6.3 49.8 6.4zm3.2 66.3c.5-.4.5-1.1.1-1.5-.4-.5-1.1-.5-1.5-.1-.1.1-17.3 16.2-25 18.8-7.7 2.6-21.8 4.9-21.9 4.9-.5.1-1 .6-.9 1.2s.6 1 1.2.9c0 0 14.3-2.3 22.3-5 7.9-2.9 25.6-19.3 25.7-19.2z" fill="#111927"/><path class="st19" d="M246.8 272.5v-13l-9.5 3.7v13c2.4-.9 5.7-2.3 9.5-3.7zm4.9-23.9v22.1c3.2-1.2 6.4-2.4 9.5-3.5v-22.3l-9.5 3.7z"/><path class="st6" d="M162.5 234.5l1.6 5.3 5.3 1.6-5.3 1.6-1.6 5.3-1.7-5.3-5.2-1.6 5.2-1.6z"/><path class="st8" d="M361.3 186.3l14-.6c1.9-.1 5-.6 3.4-3.3-2.4-3.8-4.8-7.2-7.4-10.4-.2 1.7-.6 3.9-2 5.7-2.3 3-8.4 7.6-10.1 8.9.3-.1 1-.2 2.1-.3zm-25.2 25.1s-1.5 2.5-1.2 4.6c.4 2.3 13.1 31.2 13.5 32.2.5 1 21.3-6.5 21.3-6.5l-.5-9.4s-5 2.4-10.4.1c-5.5-2.3-10.9-11-5.6-9.5 3.1.9 8.4.9 12.4.8 2 0 5.8-.6 2.9-2.9-2.5-2-6.4-4.9-10.7-8.4-6.5-5.4-13-12.5-15.3-16.7-.7-1.3-1.1-2.3-.9-2.8.8-2.2 6-3 5.5-4.3-.4-.9-7.2-1.8-12.5-4.3-2-.9-3.8-2.1-5.1-3.5-4.5-5.4-23.3-26.8-23.3-26.8 4.2 7.7 15.6 34.6 18.7 39.2 3.6 5.4 28 24.2 28.5 25.2.6.9-17.3-7.1-17.3-7z"/><path class="st8" d="M384.4 260.1c-1.4-.1-3-.1-4.6.2-2.9.4-7.4 1.6-10.9 2.8 3.5 1.5 7.1 3.8 9.4 7.2 3.5 5.3 9.4 19.3 12.4 34.1 2.7-1.2 6.4-2.8 10.2-4.5-1.1-5.8.4-10.9 3.8-12 3-1 6.6 1.5 9.1 5.9 1.6-.8 2.9-1.5 3.5-2 1.6-1.2 2.8-12.4 3.5-19.2.1-.8.2-1.6.3-2.5-3.5-12.2-7.4-25.1-10.1-33.6-1.7-5.6-3-9.4-3.2-9.7-.9-1.8-6.2-5.5-17.5-22.4 0 0-14.8-5.4-17.3-6.2-2.5-.7-3.1-.4 5.9 7.1 4.6 3.9 13.7 15.3 20.3 25.8 6.1 9.7 10.1 18.5 6.7 20-7.1 2.9-21.8-5.9-21.8-5.9 3.4 3.6 6.8 8 9.6 12.9 9.1 15.8 7.4 19.9 7.4 19.9s-8.7-11.4-16.7-17.9z"/><path class="st1" d="M326.9 161.8s2.9-3 6.9-2.2c4.1.8 16 3.5 19.6 5.5 8.5 4.6 9.3 8.6 1.6 13.9-5.2 3.6-14.6 1.9-19.2-1.7-3.1-2.6-12.8-11.6-8.9-15.5zm25.7 35s.5 2.5 5.4 8.4 19 18.3 22.2 20.8 9.5 2.6 10.2 1.9c.6-.7-4.6-8.6-9.9-14.2-5.3-5.5-16-17.9-18.3-19.2-2.4-1.4-6.2-2.1-8.1-1.2-1.9 1.1-1.4 3.5-1.5 3.5zm-46.4-64.2c-2.4-5.9 12.7-.6 19 5 13.2 11.9 5.2 17.3-6.2 10.8-7.1-4.1-11.6-13.1-12.8-15.8z"/><path class="st8" d="M58.5 333.4c-1.6-6.6-1.6-14.3-.5-22.1-2.7-1.2-6.9-3.1-11.3-5.1-2.5 4.5-6.2 7.1-9.3 6.2-3.5-1.1-5-6.4-3.7-12.3-2.4-1.2-4.2-2.2-5.1-2.8-.5-.4-1.1-.9-1.5-1.6-1.3-2-2.3-5.1-3-8.5-2.1 8-3.3 13.9-2.8 15.2.7 1.9 3.1 8.1 5.8 14.7 2.5 2.5 5.9 5 10.5 7 5 2.1 12.9 5.7 20.9 9.3z"/><path class="st1" d="M105.3 133.6c-1.5 2.4-2.9 5.2-4.3 7.7-.5.9-.9 1.9-1.4 2.7 0 0 .6-.5 1.8-1.4 2.4-1.7 7-4.5 12.6-5.7 6.9-1.5 22-7.8 20.5-12.8-.3-1.1-1.4-2.1-3.4-2.9-10.7 3.4-20.3 6.3-21.2 6.5-.8.4-2.6 2.8-4.6 5.9zm0 21c-6.6 1.6-14.7 4.5-19.1 8.9-4.1 4.2-7.2 8.9-10.7 15 0 0 12.3-3.8 21.3-5.9 5.7-1.4 9.4-3 12.6-5.3 1.8-1.3 3.5-2.8 5.3-4.5 4.7-4.6 10.8-11.1 1.4-10.3 0 .1-4.8.6-10.8 2.1zm-44 47.2c-5.9 8.9-15.6 20-18.5 23.9.1 3.4.7 6.5 2.2 8.1.5.6 1.3 1 2.1 1 2 0 3.5-1.6 5.3-4.4 2.1-3.2 4.7-8 9.6-13.8 6.2-7.4 14.2-13.8 18.2-17.3 3.6-3.2-4.4-1.5-5.1-1.3-6.1 1.5-13.5 3.7-13.5 3.7h-.3v.1z"/></g></g><path class="st5" d="M250.3 502.9c0-.6-.2-1.2-.6-1.6l-.1-.1-.1-.1-.1-.1h-.1l-23-13.3c-.1 0-.1-.1-.2-.1-.3-.2-.7-.2-1.1-.2-.2 0-.4.1-.6.1-.1 0-.3.1-.4.2L201 501h-.2l-.1.1s-.1 0-.1.1c-.1 0-.1.1-.2.2-.3.4-.5.9-.5 1.4v26.6c0 .8.5 1.5 1.1 1.9l23 13.3h.1s.1 0 .1.1h.1c.1 0 .1 0 .2.1h1.4c.1 0 .1 0 .2-.1h.1s.1 0 .1-.1h.1l23-13.3c.7-.4 1.1-1.1 1.1-1.9l-.2-26.5c.1 0 0 0 0 0zM209 502l15.7-9c.3-.2.7-.2 1 0l15.7 9c.7.4.7 1.4 0 1.7l-15.7 9c-.3.2-.7.2-1 0l-15.7-9c-.7-.4-.7-1.3 0-1.7zm13.4 34.4c0 .8-.8 1.3-1.5.9l-15.6-9c-.3-.2-.5-.5-.5-.9v-18.1c0-.8.8-1.3 1.5-.9l15.6 9c.3.2.5.5.5.9v18.1zm23.1-9.1c0 .4-.2.7-.5.9l-15.6 9c-.7.4-1.5-.1-1.5-.9v-18.1c0-.4.2-.7.5-.9l15.6-9c.7-.4 1.5.1 1.5.9v18.1z"/></svg>